<?xml version='1.0' encoding='UTF-8'?>
<svg x="0px" y="0px" viewBox="0 0 32 32" version="1.1" xmlns="http://www.w3.org/2000/svg" xmlns:xlink="http://www.w3.org/1999/xlink" xml:space="preserve" id="InsertCaption" style="enable-background:new 0 0 32 32">
  <style type="text/css">
	.Black{fill:#727272;}
	.Green{fill:#039C23;}
	.Blue{fill:#1177D7;}
	.st0{opacity:0.5;}
</style>
  <polygon points="10,23 4,19 4,22 0,22 0,24 4,24 4,27 " class="Green" />
  <g class="st0">
    <rect x="12" y="8" width="14" height="12" rx="0" ry="0" class="Black" />
  </g>
  <path d="M31,0H7C6.4,0,6,0.4,6,1v17l2,1.3V2h22v28H8v-3.3L6,28v3c0,0.6,0.4,1,1,1h24c0.6,0,1-0.4,1-1V1  C32,0.4,31.6,0,31,0z M26,24H12v-2h14V24z" class="Black" />
</svg>