<?xml version='1.0' encoding='UTF-8'?>
<svg x="0px" y="0px" viewBox="0 0 32 32" version="1.1" xmlns="http://www.w3.org/2000/svg" xmlns:xlink="http://www.w3.org/1999/xlink" xml:space="preserve" id="Layer_1" style="enable-background:new 0 0 32 32">
  <style type="text/css">
	.Green{fill:#039C23;}
	.Black{fill:#727272;}
	.Red{fill:#D11C1C;}
	.Yellow{fill:#FFB115;}
	.Blue{fill:#1177D7;}
	.White{fill:#FFFFFF;}
	.st0{opacity:0.5;}
	.st1{opacity:0.75;}
</style>
  <g id="ShowWeightedLegend">
    <g class="st0">
      <polygon points="28,0 2,0 2,2 28,2 28,28 30,28 30,2 30,0   " class="Black" />
    </g>
    <path d="M2,28V0H0v30h30v-2H2z M24,8H14V6h10V8z M24,14H14v2h10V14z M24,22H14v2h10V22z" class="Black" />
    <path d="M10,6c0,1.1-0.9,2-2,2S6,7.1,6,6s0.9-2,2-2S10,4.9,10,6z M8,10c-1.7,0-3,1.3-3,3s1.3,3,3,3s3-1.3,3-3   S9.7,10,8,10z M12,22c0-2.2-1.8-4-4-4s-4,1.8-4,4s1.8,4,4,4S12,24.2,12,22z" class="Blue" />
  </g>
</svg>